<svg width="100" height="100" viewBox="0 0 100 100" xmlns="http://www.w3.org/2000/svg">
  <!-- Cloud base -->
  <ellipse cx="50" cy="70" rx="35" ry="15" fill="#2563eb" opacity="0.8"/>
  <!-- Cloud layers -->
  <circle cx="30" cy="60" r="12" fill="#3b82f6"/>
  <circle cx="50" cy="55" r="15" fill="#3b82f6"/>
  <circle cx="70" cy="60" r="12" fill="#3b82f6"/>
  <!-- Elephant silhouette -->
  <path d="M25 45 Q20 40 25 35 Q30 30 40 35 Q50 30 60 35 Q70 30 75 35 Q80 40 75 45 Q70 50 60 45 Q50 50 40 45 Q30 50 25 45" fill="#1e40af"/>
  <!-- Tech elements -->
  <circle cx="35" cy="25" r="3" fill="#60a5fa"/>
  <circle cx="50" cy="20" r="4" fill="#60a5fa"/>
  <circle cx="65" cy="25" r="3" fill="#60a5fa"/>
  <path d="M45 15 L50 10 L55 15 M50 10 L50 5" stroke="#60a5fa" stroke-width="2" fill="none"/>
</svg>